<svg version="1.1" id="Layer_1" xmlns="http://www.w3.org/2000/svg" xmlns:xlink="http://www.w3.org/1999/xlink" x="0px" y="0px"
	 width="100%" height="350" viewBox="0 0 400 300" enable-background="new 0 0 400 300" xml:space="preserve">
<path fill="#000000" opacity="1.000000" stroke="none"
	d="
M365.000000,301.000000
	C243.666656,301.000000 122.333321,301.000000 1.000000,301.000000
	C1.000000,290.915131 1.000000,280.926208 1.340922,270.296448
	C2.490268,270.850372 3.355878,272.010712 4.098172,273.245239
	C10.772215,284.344879 23.209120,289.025665 35.350929,284.607697
	C38.280289,283.541809 40.770161,281.268097 43.607933,279.456787
	C44.004074,281.534119 44.302441,283.098755 44.583260,284.571350
	C47.533939,284.571350 50.084457,284.571350 52.630592,284.571350
	C52.630592,274.253693 52.630592,264.361908 52.630592,253.999649
	C48.471783,253.999649 44.677708,253.999649 40.883633,253.999649
	C37.105160,253.999649 33.326691,253.999649 29.451603,253.999649
	C29.451603,257.667542 29.451603,260.683472 29.451603,264.115356
	C33.647785,264.115356 37.396690,264.115356 41.201691,264.115356
	C40.005318,271.084656 35.819031,274.825897 29.426548,274.997131
	C21.153805,275.218719 15.297482,271.318909 14.217762,263.933258
	C13.518501,259.150055 13.608497,254.125168 14.194508,249.312027
	C14.938541,243.200943 20.503786,238.068298 26.340885,237.071335
	C31.775848,236.143051 36.429569,238.577438 39.989128,244.051132
	C40.513199,244.856995 41.506855,245.833252 42.334251,245.883057
	C45.758362,246.089157 49.202080,245.969498 53.392246,245.969498
	C52.446491,243.238998 51.961937,241.168976 51.045635,239.311981
	C47.297573,231.716202 41.168064,227.595551 32.664471,226.991699
	C21.087435,226.169617 10.876921,228.216400 4.728003,239.544846
	C3.822582,241.212952 2.259047,242.523834 1.000004,244.000000
	C1.000000,163.037964 1.000000,82.075912 1.000000,1.056936
	C134.232864,1.056936 267.465759,1.056936 400.849335,1.056936
	C400.849335,100.999825 400.849335,200.999893 400.849335,301.000000
	C396.610840,301.000000 392.279541,301.000000 387.348389,300.650085
	C394.828979,296.175140 396.475372,289.197449 396.103241,280.804871
	C395.668671,271.003479 396.001923,261.167999 396.002014,251.347321
	C396.002014,248.411758 396.001984,245.476196 396.001984,241.864731
	C391.591736,243.171875 386.812500,239.166046 384.431213,245.157715
	C374.953094,238.478668 363.164612,241.648361 358.937164,250.158661
	C355.610168,256.856354 355.171265,263.815552 356.660736,270.928497
	C358.237427,278.458008 362.907745,283.735352 370.556396,284.469940
	C375.212128,284.917053 380.099762,282.949493 385.945099,281.870575
	C384.405121,284.884369 383.503265,289.053772 380.929657,290.929535
	C378.848663,292.446289 373.385834,292.538635 371.810059,290.927826
	C367.155762,286.170135 362.222382,288.695953 356.904266,288.034363
	C357.426331,292.689789 358.569550,296.037445 362.323883,298.149536
	C363.407501,298.759125 364.118286,300.031494 365.000000,301.000000
M236.928909,178.836655
	C245.330444,168.910950 253.731979,158.985245 262.672455,148.671051
	C267.457092,139.449951 272.241699,130.228851 277.496582,120.461830
	C279.245636,110.968925 280.994659,101.476021 282.871765,91.083481
	C282.541382,64.342659 272.072632,42.433071 251.058380,25.906654
	C239.689758,16.965931 226.544266,11.372109 212.100418,10.131905
	C192.473801,8.446689 173.929153,12.019353 157.518036,23.826679
	C144.528549,33.172241 134.698456,44.894199 128.883423,60.474777
	C128.740128,60.987469 128.596817,61.500156 128.085464,62.699924
	C127.089493,66.479057 126.093513,70.258194 124.794785,74.473755
	C124.785835,74.984138 124.776878,75.494530 124.471519,76.774353
	C124.343689,77.860397 124.215866,78.946449 123.776634,80.781380
	C122.148026,95.400414 123.893814,109.525253 130.015610,123.756638
	C135.966293,133.929092 141.916992,144.101547 148.070343,154.906525
	C155.317291,162.966782 162.564224,171.027023 170.130661,179.683701
	C179.235870,187.372818 188.302628,195.108200 197.467773,202.725220
	C200.561218,205.296173 204.349197,206.069855 207.565186,203.452255
	C217.304962,195.524780 226.787613,187.281403 236.928909,178.836655
M281.000000,261.499969
	C281.000000,250.439926 281.000000,239.379883 281.000000,228.393982
	C276.554321,228.393982 272.989105,228.393982 268.978027,228.393982
	C268.978027,234.178497 268.978027,239.585068 268.978027,245.230148
	C258.061096,239.180634 249.011948,241.009674 243.406647,250.037689
	C239.815125,255.822281 239.267044,262.329742 240.190826,268.692413
	C241.212036,275.726074 244.267776,281.993317 251.647079,284.778351
	C258.143402,287.230133 263.948975,286.313110 268.768097,280.994263
	C268.917786,280.829071 269.378082,280.945282 269.695923,280.941772
	C269.954315,282.195129 270.212708,283.448456 270.461151,284.653564
	C273.936737,284.653564 277.187012,284.653564 281.000000,284.653564
	C281.000000,277.048309 281.000000,269.774139 281.000000,261.499969
M128.913467,285.898529
	C131.364792,284.995789 134.154846,284.568970 136.208420,283.107391
	C144.808609,276.986511 146.875885,268.536926 145.131012,258.352600
	C142.058670,240.420212 122.637840,237.477615 112.169365,244.309616
	C102.613571,250.545959 99.840630,266.252686 106.126671,276.696869
	C111.249191,285.207825 119.193268,286.522858 128.913467,285.898529
M95.108559,272.011108
	C91.859337,272.594086 88.095833,272.348816 85.489525,273.967163
	C82.143524,276.044830 78.865829,277.003357 75.864670,275.115387
	C73.526543,273.644531 72.209373,270.550690 70.438484,268.178131
	C70.835617,267.745239 71.232750,267.312378 71.629890,266.879486
	C80.557426,266.879486 89.484970,266.879486 98.993095,266.879486
	C98.993095,264.290649 99.115875,262.168823 98.972450,260.065125
	C98.240715,249.332840 90.607788,239.492264 75.502617,241.794083
	C64.983566,243.397049 60.590706,250.208084 59.349190,259.588867
	C57.823082,271.120026 61.010853,282.576965 75.249802,285.681702
	C83.355804,287.449158 93.069092,283.734558 96.859978,276.966614
	C97.859726,275.181763 99.464066,273.101013 95.108559,272.011108
M205.251846,284.626526
	C222.859344,289.162659 232.878860,282.556305 235.401077,268.481323
	C236.155624,264.270660 235.608261,259.543823 234.524673,255.345810
	C232.302582,246.737137 225.874878,242.042160 217.368286,241.200531
	C209.032761,240.375824 201.251511,242.216339 196.400894,250.242477
	C189.131195,262.271393 193.878754,280.753723 205.251846,284.626526
M335.306458,241.857361
	C331.385529,242.640610 327.464600,243.423859 325.084381,243.899338
	C319.675995,243.497910 315.525574,243.189865 311.460938,242.888168
	C311.460938,257.522247 311.460938,271.086609 311.460938,284.559601
	C315.491364,284.559601 319.053955,284.559601 322.693451,284.559601
	C322.820007,283.321289 322.972961,282.505981 322.975800,281.690155
	C323.000732,274.526733 322.922760,267.362030 323.031372,260.200104
	C323.105988,255.281372 327.040375,251.072021 331.174103,251.202606
	C335.263489,251.331802 336.998932,253.869278 337.004272,259.750000
	C337.010620,266.746643 337.128784,273.746246 336.957001,280.738617
	C336.876892,283.998962 338.043518,285.290894 341.300629,285.030151
	C343.710327,284.837219 346.147858,284.992188 349.000580,284.992188
	C349.000580,274.584991 349.010895,264.950073 348.997559,255.315155
	C348.985291,246.475220 344.880371,242.237686 335.306458,241.857361
M164.308899,285.642822
	C178.902252,288.206238 188.650345,279.653442 188.416061,269.007782
	C185.619675,269.007782 182.777008,268.752716 180.016418,269.118042
	C178.685196,269.294189 176.853424,270.367950 176.384186,271.504333
	C174.950790,274.975769 172.371475,276.996368 169.109528,275.759308
	C166.715088,274.851257 163.884888,272.239319 163.353577,269.907227
	C162.445786,265.922729 162.561371,261.416321 163.492325,257.419128
	C163.984818,255.304596 166.824860,253.064911 169.103943,252.207001
	C172.013489,251.111725 174.886932,252.174164 176.399765,255.616791
	C176.863998,256.673248 178.453308,257.747681 179.630569,257.877380
	C182.559265,258.200012 185.547348,257.983551 188.694717,257.983551
	C188.694717,256.525574 188.871078,255.531799 188.668167,254.622681
	C185.808868,241.812119 175.048141,239.969513 162.636444,242.865997
	C154.076569,244.863571 151.621490,252.277618 150.298477,259.746216
	C148.693573,268.806183 151.868011,283.269897 164.308899,285.642822
M301.910828,283.097656
	C301.940552,272.646881 301.982208,262.196167 301.996643,251.745377
	C302.011475,241.028381 301.999420,241.024734 291.178741,242.328568
	C290.903290,242.361771 290.664978,242.702744 290.339020,242.954483
	C290.339020,256.758972 290.339020,270.609314 290.339020,285.375946
	C294.400146,284.880829 298.038544,284.437256 301.910828,283.097656
M296.456512,238.958099
	C302.599609,238.790558 303.562225,236.616608 301.147003,228.348618
	C297.591797,228.348618 294.036591,228.348618 290.547699,228.348618
	C289.018524,238.160919 289.327698,238.788269 296.456512,238.958099
z"/>
<path fill="#2E4892" opacity="1.000000" stroke="none"
	d="
M1.000004,244.468658
	C2.259047,242.523834 3.822582,241.212952 4.728003,239.544846
	C10.876921,228.216400 21.087435,226.169617 32.664471,226.991699
	C41.168064,227.595551 47.297573,231.716202 51.045635,239.311981
	C51.961937,241.168976 52.446491,243.238998 53.392246,245.969498
	C49.202080,245.969498 45.758362,246.089157 42.334251,245.883057
	C41.506855,245.833252 40.513199,244.856995 39.989128,244.051132
	C36.429569,238.577438 31.775848,236.143051 26.340885,237.071335
	C20.503786,238.068298 14.938541,243.200943 14.194508,249.312027
	C13.608497,254.125168 13.518501,259.150055 14.217762,263.933258
	C15.297482,271.318909 21.153805,275.218719 29.426548,274.997131
	C35.819031,274.825897 40.005318,271.084656 41.201691,264.115356
	C37.396690,264.115356 33.647785,264.115356 29.451603,264.115356
	C29.451603,260.683472 29.451603,257.667542 29.451603,253.999649
	C33.326691,253.999649 37.105160,253.999649 40.883633,253.999649
	C44.677708,253.999649 48.471783,253.999649 52.630592,253.999649
	C52.630592,264.361908 52.630592,274.253693 52.630592,284.571350
	C50.084457,284.571350 47.533939,284.571350 44.583260,284.571350
	C44.302441,283.098755 44.004074,281.534119 43.607933,279.456787
	C40.770161,281.268097 38.280289,283.541809 35.350929,284.607697
	C23.209120,289.025665 10.772215,284.344879 4.098172,273.245239
	C3.355878,272.010712 2.490268,270.850372 1.340922,269.827820
	C1.000000,261.645752 1.000000,253.291534 1.000004,244.468658
z"/>
<path fill="#2E4892" opacity="1.000000" stroke="none"
	d="
M365.468262,301.000000
	C364.118286,300.031494 363.407501,298.759125 362.323883,298.149536
	C358.569550,296.037445 357.426331,292.689789 356.904266,288.034363
	C362.222382,288.695953 367.155762,286.170135 371.810059,290.927826
	C373.385834,292.538635 378.848663,292.446289 380.929657,290.929535
	C383.503265,289.053772 384.405121,284.884369 385.945099,281.870575
	C380.099762,282.949493 375.212128,284.917053 370.556396,284.469940
	C362.907745,283.735352 358.237427,278.458008 356.660736,270.928497
	C355.171265,263.815552 355.610168,256.856354 358.937164,250.158661
	C363.164612,241.648361 374.953094,238.478668 384.431213,245.157715
	C386.812500,239.166046 391.591736,243.171875 396.001984,241.864731
	C396.001984,245.476196 396.002014,248.411758 396.002014,251.347321
	C396.001923,261.167999 395.668671,271.003479 396.103241,280.804871
	C396.475372,289.197449 394.828979,296.175140 386.874268,300.650085
	C386.555542,301.000000 386.111115,301.000000 385.349854,300.807495
	C384.688721,300.743317 384.344360,300.871674 384.000000,301.000000
	C377.978851,301.000000 371.957703,301.000000 365.468262,301.000000
M372.075317,253.338058
	C367.400085,257.099884 367.348602,262.319122 368.357178,267.381958
	C369.108063,271.151367 371.370972,274.673828 375.840485,274.873718
	C380.656708,275.089081 383.626373,271.970764 384.584259,267.639099
	C385.579834,263.136932 385.760101,258.382477 382.097351,254.632492
	C379.420746,251.892197 376.292419,251.006592 372.075317,253.338058
z"/>
<path fill="#000000" opacity="1.000000" stroke="none"
	d="
M384.250000,301.000000
	C384.344360,300.871674 384.688721,300.743317 385.016541,300.807495
	C385.000000,301.000000 384.500000,301.000000 384.250000,301.000000
z"/>
<path fill="#345AA2" opacity="1.000000" stroke="none"
	d="
M124.088043,80.032494
	C124.215866,78.946449 124.343689,77.860397 124.779533,76.272964
	C125.090874,75.193489 125.094200,74.615402 125.097534,74.037323
	C126.093513,70.258194 127.089493,66.479057 128.461792,62.271687
	C128.982544,61.258591 129.126984,60.673733 129.271423,60.088875
	C134.698456,44.894199 144.528549,33.172241 157.518036,23.826679
	C173.929153,12.019353 192.473801,8.446689 212.100418,10.131905
	C226.544266,11.372109 239.689758,16.965931 251.058380,25.906654
	C272.072632,42.433071 282.541382,64.342659 282.467133,91.479355
	C277.829163,88.003685 272.692139,87.909882 267.327179,87.916664
	C260.263672,87.925591 253.199417,87.335182 245.946991,86.683403
	C243.474945,80.256111 240.871597,74.364105 234.902191,70.841904
	C224.792801,64.876945 214.445541,69.298149 207.931961,82.112122
	C199.587616,81.723434 191.739014,81.360359 183.619324,80.808044
	C173.595291,66.681282 159.108566,67.636635 151.118347,82.710083
	C150.303192,84.247864 149.164352,85.614044 147.777405,86.904160
	C141.475983,86.690514 135.564072,86.421753 129.673569,86.667053
	C126.890678,86.782928 125.145935,86.549004 124.969490,83.335045
	C124.908356,82.221413 124.394897,81.132629 124.088043,80.032494
z"/>
<path fill="#314D95" opacity="1.000000" stroke="none"
	d="
M147.867676,154.274002
	C141.916992,144.101547 135.966293,133.929092 130.283112,123.196198
	C134.192871,121.010529 137.835114,119.385300 141.812103,117.890312
	C149.288193,121.697525 153.554153,120.641319 159.202545,113.958038
	C167.644882,114.310371 175.652786,114.700104 183.664642,114.815666
	C184.930817,114.833923 186.214844,113.613899 187.772186,113.192741
	C195.238373,120.405495 202.139801,120.547699 210.100189,113.967003
	C220.902435,114.296593 231.276443,114.523697 241.815598,115.034546
	C244.490814,121.921661 249.404739,125.332039 256.315735,125.978317
	C261.722168,126.483910 263.184631,125.156631 264.014099,119.287048
	C268.539673,119.718513 272.782990,120.363129 277.026337,121.007744
	C272.241699,130.228851 267.457092,139.449951 262.039368,148.723999
	C258.872162,148.184662 256.339813,147.085449 253.803726,147.076752
	C220.242477,146.961716 186.680695,146.993881 153.119064,147.017380
	C151.383911,147.018600 149.648911,147.273224 147.867676,147.413528
	C147.867676,150.112045 147.867676,152.193024 147.867676,154.274002
z"/>
<path fill="#2F458D" opacity="1.000000" stroke="none"
	d="
M147.969009,154.590271
	C147.867676,152.193024 147.867676,150.112045 147.867676,147.413528
	C149.648911,147.273224 151.383911,147.018600 153.119064,147.017380
	C186.680695,146.993881 220.242477,146.961716 253.803726,147.076752
	C256.339813,147.085449 258.872162,148.184662 261.769897,148.918243
	C253.731979,158.985245 245.330444,168.910950 236.252014,178.879028
	C232.527084,178.281281 229.485519,177.126480 226.429901,177.088028
	C211.266251,176.897232 196.096878,176.867462 180.934265,177.096024
	C177.217407,177.152054 173.518387,178.391769 169.811172,179.087280
	C162.564224,171.027023 155.317291,162.966782 147.969009,154.590271
z"/>
<path fill="#2F4992" opacity="1.000000" stroke="none"
	d="
M281.000000,261.999939
	C281.000000,269.774139 281.000000,277.048309 281.000000,284.653564
	C277.187012,284.653564 273.936737,284.653564 270.461151,284.653564
	C270.212708,283.448456 269.954315,282.195129 269.694733,280.936035
	C269.378082,280.945282 268.917786,280.829071 268.768097,280.994263
	C263.948975,286.313110 258.143402,287.230133 251.647079,284.778351
	C244.267776,281.993317 241.212036,275.726074 240.190826,268.692413
	C239.267044,262.329742 239.815125,255.822281 243.406647,250.037689
	C249.011948,241.009674 258.061096,239.180634 268.978027,245.230148
	C268.978027,239.585068 268.978027,234.178497 268.978027,228.393982
	C272.989105,228.393982 276.554321,228.393982 281.000000,228.393982
	C281.000000,239.379883 281.000000,250.439926 281.000000,261.999939
M268.979279,267.917145
	C268.986420,266.090302 269.011810,264.263275 268.997223,262.436615
	C268.953735,256.992157 265.865112,252.512741 261.833374,252.021057
	C257.008606,251.432678 253.565277,254.466827 252.192581,260.516296
	C250.744202,266.899261 253.797501,274.256500 258.506256,275.729645
	C262.550262,276.994812 266.246948,274.523010 268.979279,267.917145
z"/>
<path fill="#2E4892" opacity="1.000000" stroke="none"
	d="
M128.474609,285.934570
	C119.193268,286.522858 111.249191,285.207825 106.126671,276.696869
	C99.840630,266.252686 102.613571,250.545959 112.169365,244.309616
	C122.637840,237.477615 142.058670,240.420212 145.131012,258.352600
	C146.875885,268.536926 144.808609,276.986511 136.208420,283.107391
	C134.154846,284.568970 131.364792,284.995789 128.474609,285.934570
M115.895546,269.262909
	C117.170982,273.831787 120.034500,276.359650 124.920692,275.956085
	C129.301498,275.594299 131.963791,272.701111 132.770477,268.793243
	C133.460556,265.450226 133.313370,261.801361 132.845322,258.382385
	C132.080429,252.794754 125.856461,249.720200 120.774391,252.060486
	C115.708847,254.393127 113.917229,260.102753 115.895546,269.262909
z"/>
<path fill="#2E4892" opacity="1.000000" stroke="none"
	d="
M95.540451,272.026794
	C99.464066,273.101013 97.859726,275.181763 96.859978,276.966614
	C93.069092,283.734558 83.355804,287.449158 75.249802,285.681702
	C61.010853,282.576965 57.823082,271.120026 59.349190,259.588867
	C60.590706,250.208084 64.983566,243.397049 75.502617,241.794083
	C90.607788,239.492264 98.240715,249.332840 98.972450,260.065125
	C99.115875,262.168823 98.993095,264.290649 98.993095,266.879486
	C89.484970,266.879486 80.557426,266.879486 71.629890,266.879486
	C71.232750,267.312378 70.835617,267.745239 70.438484,268.178131
	C72.209373,270.550690 73.526543,273.644531 75.864670,275.115387
	C78.865829,277.003357 82.143524,276.044830 85.489525,273.967163
	C88.095833,272.348816 91.859337,272.594086 95.540451,272.026794
M77.157906,251.409637
	C74.234825,252.997238 71.404335,254.648392 71.962639,258.565430
	C76.975800,258.565430 81.816238,258.565430 86.923721,258.565430
	C85.370514,253.724930 82.693199,251.080933 77.157906,251.409637
z"/>
<path fill="#2E4892" opacity="1.000000" stroke="none"
	d="
M204.922287,284.404541
	C193.878754,280.753723 189.131195,262.271393 196.400894,250.242477
	C201.251511,242.216339 209.032761,240.375824 217.368286,241.200531
	C225.874878,242.042160 232.302582,246.737137 234.524673,255.345810
	C235.608261,259.543823 236.155624,264.270660 235.401077,268.481323
	C232.878860,282.556305 222.859344,289.162659 204.922287,284.404541
M209.158371,274.564453
	C216.368774,277.733917 221.397934,275.534271 222.891998,268.086060
	C223.511246,264.998901 223.386337,261.603149 222.839249,258.481018
	C222.128189,254.423065 219.355621,251.520996 215.179413,251.136597
	C210.794464,250.732956 207.569962,253.197144 206.099960,257.288055
	C203.968048,263.221039 204.435715,268.941742 209.158371,274.564453
z"/>
<path fill="#2F4992" opacity="1.000000" stroke="none"
	d="
M335.700806,241.906815
	C344.880371,242.237686 348.985291,246.475220 348.997559,255.315155
	C349.010895,264.950073 349.000580,274.584991 349.000580,284.992188
	C346.147858,284.992188 343.710327,284.837219 341.300629,285.030151
	C338.043518,285.290894 336.876892,283.998962 336.957001,280.738617
	C337.128784,273.746246 337.010620,266.746643 337.004272,259.750000
	C336.998932,253.869278 335.263489,251.331802 331.174103,251.202606
	C327.040375,251.072021 323.105988,255.281372 323.031372,260.200104
	C322.922760,267.362030 323.000732,274.526733 322.975800,281.690155
	C322.972961,282.505981 322.820007,283.321289 322.693451,284.559601
	C319.053955,284.559601 315.491364,284.559601 311.460938,284.559601
	C311.460938,271.086609 311.460938,257.522247 311.460938,242.888168
	C315.525574,243.189865 319.675995,243.497910 325.084381,243.899338
	C327.464600,243.423859 331.385529,242.640610 335.700806,241.906815
z"/>
<path fill="#2D3E85" opacity="1.000000" stroke="none"
	d="
M169.970917,179.385498
	C173.518387,178.391769 177.217407,177.152054 180.934265,177.096024
	C196.096878,176.867462 211.266251,176.897232 226.429901,177.088028
	C229.485519,177.126480 232.527084,178.281281 235.972794,179.041260
	C226.787613,187.281403 217.304962,195.524780 207.565186,203.452255
	C204.349197,206.069855 200.561218,205.296173 197.467773,202.725220
	C188.302628,195.108200 179.235870,187.372818 169.970917,179.385498
z"/>
<path fill="#2E4892" opacity="1.000000" stroke="none"
	d="
M163.949768,285.425812
	C151.868011,283.269897 148.693573,268.806183 150.298477,259.746216
	C151.621490,252.277618 154.076569,244.863571 162.636444,242.865997
	C175.048141,239.969513 185.808868,241.812119 188.668167,254.622681
	C188.871078,255.531799 188.694717,256.525574 188.694717,257.983551
	C185.547348,257.983551 182.559265,258.200012 179.630569,257.877380
	C178.453308,257.747681 176.863998,256.673248 176.399765,255.616791
	C174.886932,252.174164 172.013489,251.111725 169.103943,252.207001
	C166.824860,253.064911 163.984818,255.304596 163.492325,257.419128
	C162.561371,261.416321 162.445786,265.922729 163.353577,269.907227
	C163.884888,272.239319 166.715088,274.851257 169.109528,275.759308
	C172.371475,276.996368 174.950790,274.975769 176.384186,271.504333
	C176.853424,270.367950 178.685196,269.294189 180.016418,269.118042
	C182.777008,268.752716 185.619675,269.007782 188.416061,269.007782
	C188.650345,279.653442 178.902252,288.206238 163.949768,285.425812
z"/>
<path fill="#33539B" opacity="1.000000" stroke="none"
	d="
M277.261475,120.734787
	C272.782990,120.363129 268.539673,119.718513 263.742432,119.047287
	C261.508759,118.128036 259.866241,116.567436 258.141998,116.471191
	C253.448532,116.209167 251.315186,113.803001 250.517136,109.461830
	C249.138107,101.960388 247.604355,94.487396 246.135498,87.002464
	C253.199417,87.335182 260.263672,87.925591 267.327179,87.916664
	C272.692139,87.909882 277.829163,88.003685 282.403107,91.929176
	C280.994659,101.476021 279.245636,110.968925 277.261475,120.734787
z"/>
<path fill="#33539A" opacity="1.000000" stroke="none"
	d="
M141.477356,117.760071
	C137.835114,119.385300 134.192871,121.010529 130.256409,122.826401
	C123.893814,109.525253 122.148026,95.400414 123.932335,80.406937
	C124.394897,81.132629 124.908356,82.221413 124.969490,83.335045
	C125.145935,86.549004 126.890678,86.782928 129.673569,86.667053
	C135.564072,86.421753 141.475983,86.690514 147.760742,87.314499
	C147.690704,90.250954 147.435104,92.682632 146.720123,94.970772
	C146.223190,96.561134 145.448074,98.438431 144.190491,99.355858
	C136.699921,104.820374 135.840469,110.030167 141.477356,117.760071
z"/>
<path fill="#2F4892" opacity="1.000000" stroke="none"
	d="
M301.793884,283.545654
	C298.038544,284.437256 294.400146,284.880829 290.339020,285.375946
	C290.339020,270.609314 290.339020,256.758972 290.339020,242.954483
	C290.664978,242.702744 290.903290,242.361771 291.178741,242.328568
	C301.999420,241.024734 302.011475,241.028381 301.996643,251.745377
	C301.982208,262.196167 301.940552,272.646881 301.793884,283.545654
z"/>
<path fill="#2D4791" opacity="1.000000" stroke="none"
	d="
M296.001465,238.958084
	C289.327698,238.788269 289.018524,238.160919 290.547699,228.348618
	C294.036591,228.348618 297.591797,228.348618 301.149048,228.352219
	C303.562225,236.616608 302.599609,238.790558 296.001465,238.958084
z"/>
<path fill="#33539A" opacity="1.000000" stroke="none"
	d="
M124.946152,74.255539
	C125.094200,74.615402 125.090874,75.193489 124.927734,75.888245
	C124.776878,75.494530 124.785835,74.984138 124.946152,74.255539
z"/>
<path fill="#33539A" opacity="1.000000" stroke="none"
	d="
M129.077423,60.281826
	C129.126984,60.673733 128.982544,61.258591 128.645813,61.928146
	C128.596817,61.500156 128.740128,60.987469 129.077423,60.281826
z"/>
<path fill="#000000" opacity="1.000000" stroke="none"
	d="
M372.386719,253.096405
	C376.292419,251.006592 379.420746,251.892197 382.097351,254.632492
	C385.760101,258.382477 385.579834,263.136932 384.584259,267.639099
	C383.626373,271.970764 380.656708,275.089081 375.840485,274.873718
	C371.370972,274.673828 369.108063,271.151367 368.357178,267.381958
	C367.348602,262.319122 367.400085,257.099884 372.386719,253.096405
z"/>
<path fill="#F7F8FB" opacity="1.000000" stroke="none"
	d="
M141.812103,117.890312
	C135.840469,110.030167 136.699921,104.820374 144.190491,99.355858
	C145.448074,98.438431 146.223190,96.561134 146.720123,94.970772
	C147.435104,92.682632 147.690704,90.250954 148.159027,87.470200
	C149.164352,85.614044 150.303192,84.247864 151.118347,82.710083
	C159.108566,67.636635 173.595291,66.681282 183.685852,81.165695
	C185.716385,85.613846 187.390976,89.523209 189.107239,93.414185
	C190.973038,97.644127 192.676727,101.966164 194.878326,106.015793
	C195.611145,107.363724 197.703064,108.792046 199.101929,108.723320
	C200.444092,108.657402 202.337265,106.934570 202.853165,105.524544
	C204.032135,102.302238 204.503555,98.822899 205.287781,95.453865
	C206.321655,91.012177 207.379913,86.576172 208.427689,82.137718
	C214.445541,69.298149 224.792801,64.876945 234.902191,70.841904
	C240.871597,74.364105 243.474945,80.256111 245.946991,86.683403
	C247.604355,94.487396 249.138107,101.960388 250.517136,109.461830
	C251.315186,113.803001 253.448532,116.209167 258.141998,116.471191
	C259.866241,116.567436 261.508759,118.128036 263.460205,119.260437
	C263.184631,125.156631 261.722168,126.483910 256.315735,125.978317
	C249.404739,125.332039 244.490814,121.921661 241.795868,114.613541
	C240.389328,107.551170 239.442154,101.123802 237.850983,94.860023
	C236.761292,90.570412 235.366394,86.117607 232.968872,82.490730
	C231.517258,80.294762 227.760513,78.244690 225.279251,78.496094
	C222.814529,78.745819 219.970184,81.557289 218.534271,83.981094
	C216.909409,86.723869 216.741379,90.307350 215.807281,93.486320
	C213.807419,100.292343 211.722214,107.073296 209.671967,113.864517
	C202.139801,120.547699 195.238373,120.405495 187.668091,112.889168
	C185.181335,107.684258 183.145004,102.978737 180.961197,98.342712
	C178.707565,93.558380 176.741409,88.559151 173.863785,84.168945
	C170.492065,79.024979 164.863953,79.054878 161.727478,84.329063
	C159.153366,88.657578 157.713074,93.687584 156.032257,98.498199
	C155.676498,99.516380 156.077820,101.240005 156.782516,102.110870
	C159.712463,105.731773 159.678452,109.712822 158.769409,113.904961
	C153.554153,120.641319 149.288193,121.697525 141.812103,117.890312
z"/>
<path fill="#36579F" opacity="1.000000" stroke="none"
	d="
M207.931961,82.112122
	C207.379913,86.576172 206.321655,91.012177 205.287781,95.453865
	C204.503555,98.822899 204.032135,102.302238 202.853165,105.524544
	C202.337265,106.934570 200.444092,108.657402 199.101929,108.723320
	C197.703064,108.792046 195.611145,107.363724 194.878326,106.015793
	C192.676727,101.966164 190.973038,97.644127 189.107239,93.414185
	C187.390976,89.523209 185.716385,85.613846 183.956909,81.354935
	C191.739014,81.360359 199.587616,81.723434 207.931961,82.112122
z"/>
<path fill="#36569E" opacity="1.000000" stroke="none"
	d="
M210.100189,113.967003
	C211.722214,107.073296 213.807419,100.292343 215.807281,93.486320
	C216.741379,90.307350 216.909409,86.723869 218.534271,83.981094
	C219.970184,81.557289 222.814529,78.745819 225.279251,78.496094
	C227.760513,78.244690 231.517258,80.294762 232.968872,82.490730
	C235.366394,86.117607 236.761292,90.570412 237.850983,94.860023
	C239.442154,101.123802 240.389328,107.551170 241.630737,114.329803
	C231.276443,114.523697 220.902435,114.296593 210.100189,113.967003
z"/>
<path fill="#36569E" opacity="1.000000" stroke="none"
	d="
M159.202545,113.958038
	C159.678452,109.712822 159.712463,105.731773 156.782516,102.110870
	C156.077820,101.240005 155.676498,99.516380 156.032257,98.498199
	C157.713074,93.687584 159.153366,88.657578 161.727478,84.329063
	C164.863953,79.054878 170.492065,79.024979 173.863785,84.168945
	C176.741409,88.559151 178.707565,93.558380 180.961197,98.342712
	C183.145004,102.978737 185.181335,107.684258 187.386520,112.662827
	C186.214844,113.613899 184.930817,114.833923 183.664642,114.815666
	C175.652786,114.700104 167.644882,114.310371 159.202545,113.958038
z"/>
<path fill="#000000" opacity="1.000000" stroke="none"
	d="
M268.953125,268.339478
	C266.246948,274.523010 262.550262,276.994812 258.506256,275.729645
	C253.797501,274.256500 250.744202,266.899261 252.192581,260.516296
	C253.565277,254.466827 257.008606,251.432678 261.833374,252.021057
	C265.865112,252.512741 268.953735,256.992157 268.997223,262.436615
	C269.011810,264.263275 268.986420,266.090302 268.953125,268.339478
z"/>
<path fill="#000000" opacity="1.000000" stroke="none"
	d="
M115.758934,268.871155
	C113.917229,260.102753 115.708847,254.393127 120.774391,252.060486
	C125.856461,249.720200 132.080429,252.794754 132.845322,258.382385
	C133.313370,261.801361 133.460556,265.450226 132.770477,268.793243
	C131.963791,272.701111 129.301498,275.594299 124.920692,275.956085
	C120.034500,276.359650 117.170982,273.831787 115.758934,268.871155
z"/>
<path fill="#000000" opacity="1.000000" stroke="none"
	d="
M77.513794,251.265915
	C82.693199,251.080933 85.370514,253.724930 86.923721,258.565430
	C81.816238,258.565430 76.975800,258.565430 71.962639,258.565430
	C71.404335,254.648392 74.234825,252.997238 77.513794,251.265915
z"/>
<path fill="#000000" opacity="1.000000" stroke="none"
	d="
M208.868713,274.297485
	C204.435715,268.941742 203.968048,263.221039 206.099960,257.288055
	C207.569962,253.197144 210.794464,250.732956 215.179413,251.136597
	C219.355621,251.520996 222.128189,254.423065 222.839249,258.481018
	C223.386337,261.603149 223.511246,264.998901 222.891998,268.086060
	C221.397934,275.534271 216.368774,277.733917 208.868713,274.297485
z"/>
</svg>
